<svg width="48" height="48" viewBox="0 0 48 48" fill="none" xmlns="http://www.w3.org/2000/svg">
<g id="close">
<path id="Union" fill-rule="evenodd" clip-rule="evenodd" d="M8 8H12.5714V12.5714H8V8ZM12.5715 12.5714H17.143V17.1429H21.7143V21.7143H17.1428V17.1429H12.5715V12.5714ZM12.5714 35.4286H8V40H12.5714V35.4286H17.1428V30.8571H12.5714V35.4286ZM35.4286 35.4286H39.9999V40H35.4285V35.4286H30.8572V30.8571H35.4286V35.4286ZM21.7144 21.7143L26.2857 21.7143V17.1429H30.857V12.5714H35.4285V17.1429H30.8572V21.7143L26.2858 21.7143V26.2857H30.8571V30.8571H26.2856V26.2857H21.7144V21.7143ZM21.7144 26.2857V30.8571H17.1429V26.2857H21.7144ZM40 8H35.4286V12.5714H40V8Z" fill="black"/>
</g>
</svg>
