<svg width="31" height="30" viewBox="0 0 31 30" fill="none" xmlns="http://www.w3.org/2000/svg">
<g id="Social Icons">
<path id="Vector" fill-rule="evenodd" clip-rule="evenodd" d="M10.6999 0H20.2997C23.2807 0 25.6998 2.41906 25.6998 5.40004C25.6998 7.48904 24.5118 9.30201 22.775 10.2C24.5118 11.0979 25.6998 12.911 25.6998 15C25.6998 17.9809 23.2807 20.4 20.2997 20.4C18.604 20.4 17.0902 19.6173 16.1 18.3936V24.6C16.1 27.5809 13.6809 30 10.6999 30C7.71889 30 5.2998 27.5809 5.2998 24.6C5.2998 22.511 6.48779 20.6979 8.22462 19.7999C6.48779 18.902 5.2998 17.0889 5.2998 15C5.2998 12.911 6.48778 11.0979 8.22459 10.2C6.48778 9.30201 5.2998 7.48903 5.2998 5.40004C5.2998 2.41906 7.71889 0 10.6999 0ZM6.4998 5.40004C6.4998 3.08181 8.38163 1.2 10.6999 1.2H14.8997V9.59993H10.6999L10.6869 9.59994C8.37457 9.59291 6.4998 7.7139 6.4998 5.40004ZM14.9 14.9429C14.8998 14.9619 14.8997 14.9809 14.8997 15C14.8997 15.019 14.8998 15.0381 14.9 15.0571V19.1999H10.6999C8.38162 19.2 6.4998 17.3182 6.4998 15C6.4998 12.686 8.37464 10.8069 10.687 10.7999L10.6999 10.8H14.8997L14.9 14.9429ZM16.1 15.0503V14.9497C16.1269 12.6603 17.9889 10.8092 20.2825 10.8H20.2997C20.304 10.8 20.3083 10.8 20.3126 10.7999C22.625 10.8069 24.4998 12.686 24.4998 15C24.4998 17.3182 22.618 19.2 20.2997 19.2C17.9983 19.2 16.1269 17.3454 16.1 15.0503ZM16.9064 10.8C16.6101 11.0397 16.3397 11.3101 16.1 11.6063V10.8H16.9064ZM20.3127 9.59994C20.3084 9.59993 20.3041 9.59993 20.2997 9.59993C20.2932 9.59993 20.2866 9.59994 20.28 9.59996H16.1V1.2H20.2997C22.618 1.2 24.4998 3.08181 24.4998 5.40004C24.4998 7.7139 22.625 9.59291 20.3127 9.59994ZM10.6999 20.3999C8.38163 20.3999 6.4998 22.2817 6.4998 24.6C6.4998 26.9182 8.38163 28.8 10.6999 28.8C13.0181 28.8 14.9 26.9182 14.9 24.6V20.3999H10.6999Z" fill="white"/>
</g>
</svg>
