<svg width="42" height="42" viewBox="0 0 42 42" fill="none" xmlns="http://www.w3.org/2000/svg">
<g id="heart">
<path id="Union" fill-rule="evenodd" clip-rule="evenodd" d="M15.5455 3H8.27273V6.6H15.5454V10.2H19.1818L19.1818 13.8H22.8181V10.2H19.1818V6.6H15.5455V3ZM33.7273 3H26.4545V6.6H22.8182V10.2H26.4546V6.6H33.7273V3ZM4.63635 6.6H8.27272V10.2H4.63636V21H1V10.2H4.63635V6.6ZM8.27272 24.6H4.63635L4.63636 21H8.27272V24.6ZM11.9091 28.2H8.27271L8.27272 24.6H11.9091V28.2ZM15.5454 31.8H11.9091L11.9091 28.2H15.5454V31.8ZM19.1818 35.4H15.5454L15.5454 31.8L19.1818 31.8V35.4ZM19.1818 35.4L22.8181 35.4V39H19.1818L19.1818 35.4ZM26.4546 31.8H22.8182V35.4H26.4546V31.8ZM30.091 28.2V31.8L26.4546 31.8L26.4546 28.2H30.091ZM33.7273 24.6H30.0909L30.091 28.2H33.7273V24.6ZM37.3637 21V24.6H33.7273L33.7273 21H37.3637ZM37.3636 10.2L37.3637 21H41V10.2H37.3636ZM37.3636 10.2H33.7273V6.6H37.3637L37.3636 10.2Z" fill="#2A91EE"/>
</g>
</svg>
