<svg width="42" height="42" viewBox="0 0 42 42" fill="none" xmlns="http://www.w3.org/2000/svg">
<g id="users">
<path id="Union" fill-rule="evenodd" clip-rule="evenodd" d="M19.3331 2H9.33325V5.6H19.3331V2ZM9.33325 16.4H6.00037V5.60002H9.33367V16.4H19.3331V20H9.33325V16.4ZM19.3335 5.60002H22.6668V16.4H19.3335V5.60002ZM1 27.2H4.3333V34.4H24.333V38L4.3333 38H1V27.2ZM4.3333 27.2L24.333 27.2V23.6H4.33325L4.3333 27.2ZM27.6668 27.2H24.3335V38H27.6668V27.2ZM25.9997 2H32.6663V5.6H25.9997V2ZM32.6664 16.4H25.9998V20H32.6664V16.4ZM32.6667 5.60002H36V16.4H32.6667V5.60002ZM41 27.2H37.6667V34.4L30.9998 34.4V38H40.9997V34.4L41 34.4V27.2ZM30.9998 23.6H37.6664V27.2H30.9998V23.6Z" fill="#2A91EE"/>
</g>
</svg>
